#Unknown ASF file
:ROOT_YZX
:FOOT_3DOF
:FULLY-SPECIFIED
:DEGREES
1252
root 7.0087 17.6348 36.6913 0.253454 -172.663 -1.64245
lfemur -18.2161 1.13814 -19.1484
ltibia 33.2494
lfoot -13.4069 0 -9.73413
ltoes -17.0502
rfemur -3.3671 -3.62491 22.5422
rtibia 54.2714
rfoot 22.4142 0 -0.981365
rtoes 9.69975
lowerback 10.1847 2.31473 -1.98876
upperback 0.85218 2.84965 1.77687
thorax -5.01103 1.42616 2.56713
lowerneck -11.4772 -8.29576 -19.0828
upperneck 13.111 -10.9951 16.9067
head 7.96797 -5.09166 7.57471
lclavicle 5.88403e-014 -6.75868e-015
lhumerus -43.0435 10.9258 79.9337
lradius 30.9145
lwrist 0.758779
lhand -10.4033 29.7426
lfingers 7.12502
lthumb 15.5953 59.1338
rclavicle 5.88403e-014 -6.75868e-015
rhumerus -36.1946 -0.143349 -83.9963
rradius 30.3702
rwrist 2.55048
rhand -19.9632 12.8746
rfingers 7.12502
rthumb 6.37538 -17.0095
1253
root 6.90185 17.588 36.2683 -0.918243 -173.637 -0.0337876
lfemur -15.3547 1.5466 -21.207
ltibia 33.5343
lfoot -14.4032 0 -9.35594
ltoes -14.4887
rfemur -7.81871 -4.53604 19.5848
rtibia 62.6528
rfoot 21.7001 0 -3.44386
rtoes 3.17806
lowerback 10.5619 2.15662 -3.41659
upperback 1.64064 2.41289 1.61493
thorax -4.42148 1.19672 3.2713
lowerneck -11.86 -7.97704 -19.003
upperneck 12.5371 -10.3013 16.5776
head 7.69145 -4.74262 7.52328
lclavicle -1.25234e-014 1.31198e-014
lhumerus -40.4111 10.6835 80.9863
lradius 28.6864
lwrist -0.410515
lhand -11.2738 31.4023
lfingers 7.12502
lthumb 14.7568 60.857
rclavicle -1.25234e-014 1.31198e-014
rhumerus -35.5893 -1.11213 -82.8824
rradius 33.153
rwrist 0.494431
rhand -18.5978 9.49671
rfingers 7.12502
rthumb 7.69334 -20.3433
1254
root 6.79798 17.5366 35.8477 -1.98943 -174.134 1.42552
lfemur -12.649 1.13953 -23.2736
ltibia 33.7359
lfoot -15.5856 0 -7.1593
ltoes -15.8399
rfemur -12.2191 -6.01677 17.0366
rtibia 69.5049
rfoot 12.7798 0 -5.11949
rtoes -1.89224
lowerback 11.5632 1.77655 -4.46998
upperback 1.8183 1.7041 1.32993
thorax -4.7536 0.852767 3.65935
lowerneck -11.9368 -7.53557 -18.5864
upperneck 12.4103 -9.68707 16.3491
head 7.50986 -4.44176 7.45414
lclavicle -8.05078e-015 7.15625e-015
lhumerus -38.5308 11.4933 80.6328
lradius 25.8644
lwrist -3.07093
lhand -10.9319 30.6826
lfingers 7.12502
lthumb 15.0861 60.1128
rclavicle -8.05078e-015 7.15625e-015
rhumerus -35.0794 -3.12582 -81.7301
rradius 33.6467
rwrist -0.748856
rhand -21.8884 12.4445
rfingers 7.12502
rthumb 4.51649 -17.4873
1255
root 6.70494 17.5008 35.4013 -2.66395 -174.768 1.83434
lfemur -10.0184 0.220368 -24.1716
ltibia 33.5922
lfoot -17.5693 0 -4.82361
ltoes -16.4642
rfemur -16.5105 -6.98123 16.0763
rtibia 73.0843
rfoot 4.30186 0 -5.92382
rtoes -4.82139
lowerback 11.4962 1.38542 -4.63618
upperback 2.20555 1.14662 1.50512
thorax -4.26217 0.546957 4.03023
lowerneck -12.5165 -7.28667 -18.2517
upperneck 12.5506 -9.24148 16.0062
head 7.53798 -4.20816 7.32814
lclavicle 3.27995e-015 2.78299e-015
lhumerus -36.1165 13.0068 80.6857
lradius 23.0258
lwrist -7.0527
lhand -11.6563 30.6805
lfingers 7.12502
lthumb 14.3882 60.1618
rclavicle 3.27995e-015 2.78299e-015
rhumerus -34.5998 -4.76082 -80.7639
rradius 34.1992
rwrist -1.83446
rhand -25.0632 9.90275
rfingers 7.12502
rthumb 1.45056 -20.0721
1256
root 6.62865 17.4734 34.9901 -3.14477 -175.064 2.76572
lfemur -7.36775 -0.419943 -25.5107
ltibia 32.7583
lfoot -18.917 0 -3.6985
ltoes -15.0288
rfemur -20.8798 -7.89305 14.8652
rtibia 73.6873
rfoot -2.01516 0 -6.50418
rtoes -5.95153
lowerback 11.3923 0.908204 -5.41614
upperback 2.53043 0.400514 1.52031
thorax -3.79048 0.153495 4.60312
lowerneck -12.6543 -6.90879 -17.7228
upperneck 12.4637 -8.75364 15.822
head 7.40877 -3.95848 7.23484
lclavicle -3.97569e-016 -1.55052e-014
lhumerus -33.8356 14.279 80.8658
lradius 21.27
lwrist -9.89543
lhand -11.9226 30.8593
lfingers 7.12502
lthumb 14.1315 60.3587
rclavicle -3.97569e-016 -1.55052e-014
rhumerus -34.3586 -5.35411 -80.3682
rradius 35.0575
rwrist -4.55745
rhand -24.7633 12.0504
rfingers 7.12502
rthumb 1.74015 -17.9223
1257
root 6.55896 17.4344 34.5802 -3.19004 -177.39 3.57831
lfemur -5.22189 1.10609 -26.6941
ltibia 31.9036
lfoot -19.5651 0 -1.82074
ltoes -17.6148
rfemur -25.4318 -6.83079 14.4212
rtibia 71.7208
rfoot -7.02489 0 -7.06975
rtoes -9.05526
lowerback 11.5012 1.05511 -6.189
upperback 2.57345 0.48923 1.57866
thorax -3.82221 0.199789 5.09326
lowerneck -12.4017 -6.39593 -18.0067
upperneck 11.5071 -8.11232 16.8807
head 7.00656 -3.60837 7.73054
lclavicle -7.25564e-015 -2.62396e-014
lhumerus -32.0899 13.2138 82.1231
lradius 21.0817
lwrist -10.0463
lhand -12.5033 31.6482
lfingers 7.12502
lthumb 13.5719 61.1858
rclavicle -7.25564e-015 -2.62396e-014
rhumerus -34.1316 -5.42726 -80.1788
rradius 35.1237
rwrist -4.83428
rhand -24.7709 11.4819
rfingers 7.12502
rthumb 1.73284 -18.4908
1258
root 6.50805 17.422 34.1764 -2.94538 -177.967 4.32529
lfemur -3.08678 1.20141 -27.7375
ltibia 30.3709
lfoot -20.1803 0 -0.606734
ltoes -17.3822
rfemur -29.2018 -7.33262 14.2417
rtibia 66.6011
rfoot -11.3093 0 -6.97571
rtoes -13.307
lowerback 11.7797 0.550258 -6.95886
upperback 2.15789 -0.268254 1.73958
thorax -4.30581 -0.12363 5.82419
lowerneck -11.9141 -5.83813 -17.6933
upperneck 11.3459 -7.44096 16.7146
head 6.72139 -3.30763 7.70288
lclavicle -9.93923e-016 -3.18055e-015
lhumerus -31.6137 9.88438 84.1022
lradius 23.0659
lwrist -7.72814
lhand -11.8636 32.0221
lfingers 7.12502
lthumb 14.1884 61.5175
rclavicle -9.93923e-016 -3.18055e-015
rhumerus -34.7482 -4.85948 -80.0407
rradius 34.9724
rwrist -4.1804
rhand -23.4437 13.3679
rfingers 7.12502
rthumb 3.01464 -16.5905
1259
root 6.46865 17.4399 33.7414 -2.65276 -178.456 4.63334
lfemur -0.188048 1.37971 -28.2503
ltibia 27.3528
lfoot -20.0593 0 -0.165287
ltoes -17.6688
rfemur -31.4221 -7.78095 14.6138
rtibia 58.3306
rfoot -11.8985 0 -7.34238
rtoes -11.4135
lowerback 11.6483 -0.0788924 -7.33834
upperback 1.94748 -1.11824 2.06563
thorax -4.31093 -0.524427 6.51806
lowerneck -12.4346 -5.79961 -17.3522
upperneck 11.5405 -6.89722 16.3538
head 6.76054 -2.85846 7.59689
lclavicle 1.17283e-014 -2.38542e-015
lhumerus -31.1789 6.38142 86.002
lradius 25.8113
lwrist -4.6245
lhand -12.1794 30.9548
lfingers 7.12502
lthumb 13.8842 60.4713
rclavicle 1.17283e-014 -2.38542e-015
rhumerus -35.4126 -3.55952 -80.3313
rradius 35.3392
rwrist -3.70328
rhand -23.1109 12.8501
rfingers 7.12502
rthumb 3.33596 -17.1035
1260
root 6.44131 17.5055 33.2908 -2.21617 -178.672 4.97369
lfemur 2.08023 2.16683 -28.5508
ltibia 24.5004
lfoot -19.4483 0 -0.461305
ltoes -19.1064
rfemur -32.092 -7.65397 14.8409
rtibia 47.5488
rfoot -9.02904 0 -7.53809
rtoes -10.1073
lowerback 11.5744 -0.588695 -7.66989
upperback 1.67363 -1.81007 2.28843
thorax -4.42635 -0.838361 7.05145
lowerneck -12.9943 -5.53551 -16.8461
upperneck 11.8627 -6.52963 16.0838
head 6.86486 -2.65452 7.46045
lclavicle 1.54058e-014 3.18055e-015
lhumerus -30.6714 3.01964 87.4092
lradius 28.6695
lwrist -1.79145
lhand -11.9614 30.9528
lfingers 7.12502
lthumb 14.0942 60.4549
rclavicle 1.54058e-014 3.18055e-015
rhumerus -36.1911 -3.07653 -80.3893
rradius 35.318
rwrist -3.35216
rhand -22.4392 13.3534
rfingers 7.12502
rthumb 3.9847 -16.5891
1261
root 6.41516 17.5082 32.8324 -1.5674 -179.309 5.26465
lfemur 4.99087 2.59973 -28.8663
ltibia 20.8409
lfoot -19.0876 0 -0.698403
ltoes -18.3709
rfemur -31.9972 -5.74638 14.4523
rtibia 35.9683
rfoot -4.59549 0 -6.47153
rtoes -8.8857
lowerback 10.8826 -0.900496 -7.70625
upperback 1.66461 -2.16544 2.36168
thorax -3.98396 -1.0316 7.16908
lowerneck -13.9057 -5.53006 -16.6107
upperneck 12.2373 -6.50998 16.4314
head 7.14739 -2.56248 7.55298
lclavicle 3.47873e-014 -6.75868e-014
lhumerus -29.5571 -0.267864 88.295
lradius 31.4486
lwrist -0.487693
lhand -11.377 31.3367
lfingers 7.12502
lthumb 14.6573 60.7986
rclavicle 3.47873e-014 -6.75868e-014
rhumerus -37.0028 -3.264 -80.4716
rradius 35.5383
rwrist -2.92226
rhand -22.2243 12.4603
rfingers 7.12502
rthumb 4.19217 -17.4782
1262
root 6.40009 17.445 32.3346 -1.23464 -178.948 5.81601
lfemur 9.49204 2.79226 -29.203
ltibia 15.6398
lfoot -18.4345 0 -1.80509
ltoes -18.1064
rfemur -31.0626 -1.8772 12.3711
rtibia 26.0914
rfoot -5.84212 0 -7.81451
rtoes -12.9241
lowerback 10.365 -1.46501 -7.92186
upperback 1.64929 -2.89462 2.42121
thorax -3.56749 -1.40918 7.4194
lowerneck -14.1326 -5.54411 -16.4671
upperneck 11.9064 -6.51778 16.5623
head 7.08473 -2.54152 7.56334
lclavicle 4.57205e-015 -7.15625e-015
lhumerus -28.5907 -2.691 88.8108
lradius 33.7893
lwrist 1.2517
lhand -11.9371 30.9361
lfingers 7.12502
lthumb 14.1176 60.4365
rclavicle 4.57205e-015 -7.15625e-015
rhumerus -37.5183 -3.71104 -80.3007
rradius 34.7903
rwrist -2.50112
rhand -21.7617 10.7428
rfingers 7.12502
rthumb 4.6389 -19.1864
1263
root 6.40965 17.3686 31.8401 -0.698433 -178.853 6.4767
lfemur 11.3546 3.23411 -29.5836
ltibia 14.1087
lfoot -18.8374 0 -2.92727
ltoes -18.6709
rfemur -30.8778 0.891181 10.3699
rtibia 19.993
rfoot -7.89187 0 -7.68137
rtoes -21.6183
lowerback 9.88158 -1.93473 -8.42199
upperback 1.35438 -3.51522 2.46346
thorax -3.46122 -1.69555 7.80106
lowerneck -13.6799 -5.40936 -16.4722
upperneck 11.7313 -6.39258 16.6915
head 6.93215 -2.48935 7.62348
lclavicle 3.18055e-014 -1.90833e-014
lhumerus -28.1183 -4.90879 89.0541
lradius 36.23
lwrist 2.58728
lhand -12.1264 30.7065
lfingers 7.12502
lthumb 13.9352 60.2195
rclavicle 3.18055e-014 -1.90833e-014
rhumerus -38.6854 -4.22677 -80.0093
rradius 33.9069
rwrist -2.60511
rhand -22.0361 10.7186
rfingers 7.12502
rthumb 4.37387 -19.2162
1264
root 6.41985 17.2429 31.3486 -0.341765 -179.139 6.52327
lfemur 12.9794 3.02268 -29.4742
ltibia 14.0723
lfoot -19.6069 0 -3.1958
ltoes -19.9363
rfemur -31.9097 -0.134931 11.0185
rtibia 21.3384
rfoot -8.60914 0 -4.71394
rtoes -19.8907
lowerback 10.0121 -2.05187 -8.12445
upperback 1.19382 -3.64356 2.61518
thorax -3.68704 -1.74278 7.82271
lowerneck -14.0087 -5.53649 -16.1979
upperneck 11.7433 -6.55115 16.4677
head 7.00418 -2.55822 7.47412
lclavicle -2.72335e-014 3.33958e-014
lhumerus -26.9531 -6.39604 89.1792
lradius 37.642
lwrist 3.16733
lhand -11.6324 31.5233
lfingers 7.12502
lthumb 14.4112 61.003
rclavicle -2.72335e-014 3.33958e-014
rhumerus -39.4992 -5.64563 -79.2805
rradius 32.6665
rwrist -1.23316
rhand -21.6094 12.5975
rfingers 7.12502
rthumb 4.78597 -17.3285
1265
root 6.43663 17.1892 30.851 -0.151143 179.638 6.47488
lfemur 15.1367 2.34597 -29.7538
ltibia 13.064
lfoot -18.9005 0 -2.02988
ltoes -22.9775
rfemur -33.9776 0.211379 11.6459
rtibia 26.3082
rfoot -0.475151 0 -2.68786
rtoes -14.0564
lowerback 10.4132 -2.09992 -7.94639
upperback 1.41187 -3.40909 2.8086
thorax -3.70521 -1.51358 7.9104
lowerneck -15.2945 -5.55828 -15.9395
upperneck 12.114 -6.49584 16.4896
head 7.33157 -2.46231 7.44894
lclavicle 2.76311e-014 -3.18055e-015
lhumerus -25.5281 -6.2407 88.8686
lradius 38.5319
lwrist 2.752
lhand -18.1318 25.0926
lfingers 7.12502
lthumb 8.14318 54.9156
rclavicle 2.76311e-014 -3.18055e-015
rhumerus -39.7275 -7.67529 -78.0435
rradius 30.9718
rwrist 0.457399
rhand -19.5278 18.6823
rfingers 7.12502
rthumb 6.79562 -11.1887
1266
root 6.45564 17.1979 30.3023 -0.0325779 178.007 5.4797
lfemur 16.0503 1.73291 -29.2739
ltibia 14.8906
lfoot -17.5608 0 -0.61109
ltoes -28.2344
rfemur -34.8964 1.69102 13.0299
rtibia 30.0603
rfoot 1.6028 0 -0.594569
rtoes -11.9051
lowerback 10.8091 -2.07647 -7.00018
upperback 1.56165 -3.21684 3.54819
thorax -3.81162 -1.40925 8.16107
lowerneck -16.038 -5.36933 -16.0833
upperneck 12.0475 -6.05744 16.1495
head 7.35325 -2.27035 7.40127
lclavicle 7.95139e-016 -1.43125e-014
lhumerus -25.7572 -4.60365 89.4415
lradius 39.4454
lwrist 4.81788
lhand -14.932 30.775
lfingers 7.12502
lthumb 11.2304 60.4544
rclavicle 7.95139e-016 -1.43125e-014
rhumerus -39.3493 -8.94279 -76.5353
rradius 27.7792
rwrist 3.25998
rhand -21.563 11.5619
rfingers 7.12502
rthumb 4.83072 -18.3631
